<?xml version="1.0" standalone="no"?>
<!DOCTYPE svg PUBLIC "-//W3C//DTD SVG 20010904//EN"
 "http://www.w3.org/TR/2001/REC-SVG-20010904/DTD/svg10.dtd">
<svg version="1.0" xmlns="http://www.w3.org/2000/svg"
 width="1664.000000pt" height="2096.000000pt" viewBox="0 0 1664.000000 2096.000000"
 preserveAspectRatio="xMidYMid meet" fill="#FFFFFF">

<g transform="translate(0.000000,2096.000000) scale(0.100000,-0.100000)" stroke="none">
<path d="M7250 20949 c-1895 -74 -3599 -637 -4922 -1626 -159 -118 -417 -325
-417 -333 0 -3 98 -53 217 -112 397 -195 748 -409 1077 -655 771 -579 1410
-1310 1884 -2156 90 -162 251 -483 251 -502 0 -34 -21 -9 -90 108 -273 458
-606 910 -946 1287 -133 147 -449 462 -584 582 -550 488 -1212 908 -1894 1202
l-129 55 -97 -90 c-98 -90 -298 -298 -441 -459 -300 -336 -623 -779 -866
-1185 -87 -144 -283 -497 -283 -508 0 -3 39 6 88 19 487 135 1168 209 1690
184 938 -44 1670 -298 2297 -794 132 -105 353 -323 474 -466 114 -136 226
-289 217 -297 -3 -3 -101 -30 -218 -60 -235 -59 -708 -191 -728 -203 -9 -6 -4
-20 21 -56 92 -134 962 -1380 968 -1386 4 -4 58 13 121 38 540 212 1292 360
2064 404 207 12 778 12 979 1 159 -9 158 -8 246 -135 65 -96 106 -178 138
-283 23 -77 27 -105 27 -233 1 -122 -3 -159 -23 -235 -58 -221 -193 -453 -396
-680 -59 -66 -69 -73 -122 -85 -32 -7 -139 -36 -238 -65 -1054 -310 -1909
-917 -2460 -1745 -519 -781 -932 -1904 -1199 -3265 -43 -220 -100 -558 -121
-720 -8 -66 -17 -132 -20 -147 -4 -26 -1 -25 93 36 179 115 453 261 697 370
l100 45 110 170 c256 397 587 855 821 1136 138 166 370 399 501 503 432 341
909 552 1249 552 169 0 272 -37 365 -129 90 -91 129 -199 129 -357 0 -497
-447 -1152 -1175 -1720 -220 -171 -683 -464 -912 -577 -35 -17 -63 -34 -63
-38 0 -4 15 -11 33 -14 17 -4 73 -21 122 -38 341 -114 609 -322 711 -554 61
-137 72 -320 29 -487 -78 -308 -281 -613 -670 -1001 -320 -321 -705 -635
-1196 -976 -89 -62 -165 -122 -170 -133 -5 -12 -85 -284 -179 -606 -94 -322
-175 -595 -180 -608 -8 -18 -7 -22 2 -16 7 4 162 105 343 224 2011 1319 3428
2058 4580 2389 729 209 1454 359 2140 441 153 18 226 20 718 20 l547 0 0 25
c0 14 -4 25 -9 25 -4 0 -176 261 -381 581 l-373 581 56 171 c295 902 419 1897
342 2727 -94 1002 -445 1794 -1068 2412 l-128 127 16 123 c86 662 390 1094
866 1231 l83 24 125 -52 c338 -140 654 -286 1026 -473 160 -81 294 -147 298
-147 14 0 416 789 408 802 -20 37 -267 295 -384 403 -101 92 -133 127 -126
137 6 6 32 20 57 30 69 27 300 24 438 -6 126 -26 282 -80 388 -133 246 -123
471 -334 620 -580 371 -611 444 -1585 205 -2738 -133 -643 -331 -1267 -836
-2635 -366 -993 -496 -1361 -632 -1786 -297 -934 -460 -1691 -523 -2429 -19
-228 -16 -840 5 -1045 54 -504 153 -878 326 -1222 306 -611 820 -983 1524
-1103 161 -27 173 -25 42 9 -210 54 -440 154 -615 268 -357 232 -672 611 -844
1017 -303 712 -264 1682 116 2836 165 503 357 958 648 1535 252 499 362 694
862 1520 749 1236 1261 2609 1458 3910 91 599 103 1045 44 1705 -159 1812
-874 3534 -2048 4935 -250 298 -665 723 -946 969 -1194 1045 -2615 1748 -4145
2051 -729 144 -1411 195 -2205 164z"/>
</g>
</svg>
